<?xml version="1.0" standalone="no"?>
<!DOCTYPE svg PUBLIC "-//W3C//DTD SVG 20010904//EN"
 "http://www.w3.org/TR/2001/REC-SVG-20010904/DTD/svg10.dtd">
<svg version="1.0" xmlns="http://www.w3.org/2000/svg"
 width="1001.000000pt" height="1001.000000pt" viewBox="0 0 1001.000000 1001.000000"
 preserveAspectRatio="xMidYMid meet">

<g transform="translate(0.000000,1001.000000) scale(0.100000,-0.100000)"
fill="#000000" stroke="none">
<path d="M4616 7730 c-841 -62 -1407 -267 -1545 -560 l-26 -55 -3 -1013 c-3
-1127 -5 -1077 66 -1222 50 -103 159 -212 263 -263 118 -58 212 -79 362 -81
l129 -1 29 33 29 32 0 940 0 939 -22 25 c-14 14 -61 38 -113 56 -243 87 -418
221 -495 377 -42 85 -42 126 -2 186 41 59 95 98 217 157 218 106 533 181 955
227 208 22 832 25 1035 5 620 -64 1052 -196 1204 -369 50 -56 59 -98 36 -161
-64 -171 -260 -331 -520 -425 -38 -14 -78 -28 -88 -32 -48 -19 -47 -2 -47
-992 0 -842 2 -931 16 -952 30 -42 69 -51 182 -41 309 27 515 142 615 342 71
141 68 82 65 1214 l-3 1019 -33 67 c-131 266 -609 453 -1372 534 -171 18 -757
27 -934 14z m-1208 -1216 c63 -42 193 -111 260 -137 l42 -17 0 -809 0 -810
-37 6 c-69 9 -157 33 -201 54 -70 34 -148 113 -184 187 l-33 67 -3 793 -2 794
50 -45 c27 -25 76 -62 108 -83z m3340 -854 l-3 -615 -28 -56 c-55 -113 -185
-203 -327 -229 -36 -6 -73 -13 -82 -15 -17 -3 -18 41 -18 806 l0 810 33 11
c115 40 342 180 402 248 l20 22 3 -183 c1 -101 1 -461 0 -799z"/>
<path d="M4691 7299 c-239 -17 -504 -63 -747 -130 -142 -39 -394 -126 -394
-136 0 -2 8 -2 18 1 42 13 284 37 478 47 233 12 514 2 731 -26 65 -9 130 -17
145 -18 21 -2 59 25 183 128 l157 130 -69 6 c-95 9 -366 8 -502 -2z"/>
<path d="M5275 7138 l-168 -142 84 -22 c46 -13 87 -23 90 -24 10 0 377 275
379 285 1 8 -154 41 -206 44 -5 1 -86 -63 -179 -141z"/>
<path d="M5705 7104 c-71 -53 -162 -119 -202 -148 l-72 -52 90 -38 c49 -21 93
-36 98 -34 29 11 439 304 433 310 -9 8 -182 58 -202 58 -8 -1 -73 -44 -145
-96z"/>
<path d="M5987 6932 c-123 -86 -225 -161 -226 -167 -1 -5 25 -26 58 -46 l59
-37 278 159 c250 142 275 159 253 168 -13 5 -46 19 -74 31 -27 12 -67 28 -87
35 l-37 14 -224 -157z"/>
<path d="M4560 6417 c-49 -16 -105 -76 -124 -134 -15 -45 -16 -110 -14 -589 3
-535 3 -539 25 -581 50 -93 144 -135 247 -108 69 18 903 491 959 544 54 50 77
100 77 162 0 64 -28 126 -75 167 -38 34 -893 523 -944 540 -41 14 -104 14
-151 -1z m520 -444 c239 -137 435 -253 437 -259 4 -12 -867 -514 -879 -507
-11 6 -10 1013 1 1013 4 0 203 -111 441 -247z"/>
<path d="M7394 3821 c-53 -23 -79 -94 -53 -144 51 -99 199 -60 199 52 0 64
-85 118 -146 92z"/>
<path d="M6969 3614 c0 -158 -3 -195 -12 -180 -31 50 -71 85 -119 106 -142 61
-329 -30 -388 -188 -89 -236 -9 -478 188 -570 50 -24 69 -27 152 -26 163 2
261 56 316 176 l29 63 3 360 c2 227 -1 371 -7 387 -14 37 -49 58 -110 65 l-51
6 -1 -199z m-94 -238 c62 -48 80 -101 80 -241 0 -131 -11 -167 -66 -208 -34
-24 -106 -33 -153 -17 -50 16 -113 91 -132 158 -24 83 -15 196 20 256 40 68
76 88 152 84 49 -3 69 -10 99 -32z"/>
<path d="M1938 3732 c-107 -128 -318 -705 -318 -875 0 -57 34 -87 99 -87 44 0
51 3 56 23 2 12 15 69 27 127 l23 105 204 3 c148 2 207 -1 212 -9 4 -7 13 -48
19 -93 7 -45 17 -89 22 -99 18 -34 70 -57 131 -57 54 0 57 1 53 23 -3 12 -15
69 -26 127 -42 207 -123 465 -204 650 -64 146 -96 174 -208 186 -63 6 -65 6
-90 -24z m142 -226 c37 -81 99 -249 114 -308 l6 -28 -165 0 c-139 0 -165 2
-165 15 0 51 142 405 162 405 5 0 27 -38 48 -84z"/>
<path d="M4436 3728 c-25 -142 -60 -497 -72 -723 -5 -106 -3 -137 9 -167 19
-45 60 -68 122 -68 l45 0 0 78 c0 198 33 639 49 655 10 10 40 -72 147 -386 40
-120 84 -237 96 -260 31 -55 79 -87 133 -87 l42 0 30 68 c17 37 70 186 119
332 91 277 118 348 127 333 8 -14 27 -256 36 -464 5 -113 13 -205 20 -217 17
-32 63 -52 121 -52 l50 0 0 70 c0 205 -43 728 -65 790 -26 74 -72 111 -152
124 -41 6 -44 5 -74 -36 -17 -24 -46 -74 -64 -113 -29 -62 -164 -464 -196
-585 l-12 -45 -18 70 c-17 66 -161 483 -194 563 -34 80 -103 126 -212 142 -37
5 -71 10 -74 10 -4 0 -9 -15 -13 -32z"/>
<path d="M3506 3701 c-16 -11 -42 -39 -58 -63 l-29 -42 3 -331 c3 -317 4 -332
25 -371 27 -51 80 -98 130 -115 57 -20 190 -18 231 4 38 21 62 68 62 123 0 31
-3 35 -17 28 -10 -4 -52 -9 -93 -12 -57 -3 -81 -1 -106 13 -53 28 -58 51 -62
263 l-4 192 111 0 c100 0 112 2 137 23 21 18 28 35 32 75 l5 52 -142 0 -141 0
0 90 0 90 -27 0 c-16 0 -41 -9 -57 -19z"/>
<path d="M2782 3539 c-85 -27 -160 -99 -191 -182 -19 -52 -21 -78 -21 -280 0
-157 4 -229 13 -247 16 -32 71 -60 119 -60 l36 0 4 253 c4 278 8 300 67 350
44 36 131 39 181 4 69 -46 74 -67 80 -312 4 -157 9 -227 18 -243 17 -29 69
-52 117 -52 l36 0 -3 283 c-3 270 -4 284 -26 328 -31 63 -86 117 -152 147 -76
36 -190 40 -278 11z"/>
<path d="M5899 3547 c-107 -30 -180 -96 -233 -207 -30 -62 -31 -71 -31 -190 0
-117 2 -129 28 -182 37 -75 128 -160 203 -187 73 -28 153 -35 233 -22 120 20
181 73 181 157 0 41 -11 56 -25 34 -11 -18 -137 -50 -199 -50 -75 0 -118 12
-167 46 -35 24 -79 92 -79 122 0 9 34 12 118 12 324 0 426 78 366 279 -20 69
-86 141 -157 171 -63 28 -172 35 -238 17z m181 -152 c16 -8 36 -25 44 -37 22
-31 21 -101 -2 -121 -25 -23 -108 -37 -218 -37 l-94 0 0 30 c0 61 38 126 95
161 37 23 134 25 175 4z"/>
<path d="M7960 3546 c-120 -27 -180 -87 -180 -183 0 -34 1 -35 18 -20 63 57
240 86 327 52 50 -18 70 -47 81 -112 l6 -40 -111 -7 c-245 -16 -351 -86 -351
-235 0 -100 46 -168 145 -212 69 -32 230 -39 305 -14 62 20 123 72 153 129 20
38 22 55 22 236 0 182 -1 198 -23 245 -43 94 -110 144 -217 164 -72 13 -104
13 -175 -3z m250 -491 c0 -116 -45 -160 -156 -153 -54 3 -68 9 -94 33 -24 23
-30 37 -30 69 1 78 49 105 188 106 l92 0 0 -55z"/>
<path d="M7350 3226 c0 -195 4 -304 12 -327 30 -90 93 -132 201 -133 63 -1 71
1 93 27 16 19 24 40 24 67 0 39 0 39 -47 45 -64 9 -90 28 -102 72 -6 21 -11
133 -11 250 0 143 -4 221 -12 238 -16 35 -57 55 -113 55 l-45 0 0 -294z"/>
</g>
</svg>
