<?xml version="1.0" encoding="iso-8859-1"?>
<!-- Generator: Adobe Illustrator 17.1.0, SVG Export Plug-In . SVG Version: 6.00 Build 0)  -->
<!DOCTYPE svg PUBLIC "-//W3C//DTD SVG 1.1//EN" "http://www.w3.org/Graphics/SVG/1.1/DTD/svg11.dtd">
<svg version="1.1" id="Capa_1" xmlns="http://www.w3.org/2000/svg" xmlns:xlink="http://www.w3.org/1999/xlink" x="0px" y="0px"
	 viewBox="0 0 512 512" style="enable-background:new 0 0 512 512;" xml:space="preserve">
<g>
	<path d="M511.985,211.399c-0.204-4.679-2.811-13.353-17.976-18.872L89.696,45.514c-20.725-7.541-43.725,3.181-51.269,23.907
		L27.482,99.49c0,0-0.001,0.003-0.002,0.005L2.857,167.148c-7.543,20.727,3.181,43.725,23.91,51.27l117.836,42.839
		c-2.239,13.62,1.496,27.077,9.626,37.372l-25.102,68.963c-1.155,3.174-4.203,5.307-7.584,5.307H48v-24c0-13.233-10.766-24-24-24H8
		c-4.418,0-8,3.582-8,8v128c0,4.418,3.582,8,8,8h16c13.234,0,24-10.767,24-24v-24h73.543c23.488,0,44.662-14.828,52.689-36.896
		l24.574-67.514c14.063-1.974,26.843-10.185,34.429-23.009l137.703,50.062c4.501,1.638,9.107,2.415,13.641,2.415
		c13.751-0.001,26.817-7.149,34.134-19.08l15.802,5.751c1.785,0.649,3.635,0.973,5.48,0.973c2.303,0,4.598-0.504,6.747-1.506
		c3.871-1.805,6.807-5.01,8.267-9.022l21.897-60.162c2.663-7.317-0.376-15.336-6.829-19.188l25.646-11.958
		C510.349,224.945,512.189,216.078,511.985,211.399z M32,444.899c0,4.411-3.589,8-8,8h-8v-112h8c4.411,0,8,3.589,8,8V444.899z
		 M159.197,378.532c-5.737,15.771-20.869,26.367-37.654,26.367H48v-16h73.543c10.082,0,19.171-6.363,22.619-15.834l22.965-63.094
		c2.635,1.583,5.458,2.942,8.456,4.033c2.128,0.775,4.275,1.388,6.426,1.853L159.197,378.532z M193.104,300.917
		c-0.185-0.001-0.369-0.001-0.553,0.01c-3.81,0.051-7.697-0.575-11.496-1.958c-4.447-1.619-8.325-4.11-11.502-7.213
		c-0.291-0.354-0.614-0.682-0.967-0.983c-5.958-6.346-9.148-14.961-8.544-23.903l57.758,20.998
		C211.956,295.894,202.808,300.618,193.104,300.917z M461.873,257.439l-21.883,60.155l-15.046-5.476l20.756-57.027l4.249-1.981
		L461.873,257.439z M488.963,217.264l-42.767,19.942c-0.005,0.002-0.009,0.004-0.013,0.006l-10.242,4.776
		c-0.004,0.002-0.007,0.003-0.011,0.005l-12.008,5.599c-14.092,6.571-38.343,7.629-52.958,2.31l-231.409-84.081
		c-4.151-1.507-8.742,0.635-10.251,4.787c-1.509,4.153,0.634,8.742,4.787,10.252l231.405,84.079
		c8.052,2.931,17.977,4.358,28.105,4.358c11.073,0,22.379-1.715,31.736-5.036l-18.162,49.901
		c-4.526,12.436-18.326,18.87-30.764,14.343L32.236,203.382c-12.436-4.526-18.87-18.325-14.344-30.761l13.688-37.608
		c4.565,7.018,11.354,12.669,19.81,15.747l7.52,2.736c4.148,1.512,8.742-0.63,10.253-4.782c1.511-4.151-0.63-8.742-4.782-10.253
		l-7.519-2.736c-12.434-4.526-18.869-18.322-14.346-30.757l2.738-7.523c0,0,0.001-0.002,0.001-0.003l8.207-22.549
		c4.527-12.436,18.326-18.873,30.764-14.344l404.313,147.014c5.136,1.869,7.036,3.817,7.422,4.535
		C495.639,212.848,493.917,214.953,488.963,217.264z"/>
	<path d="M109.485,154.878l-15.037-5.474c-4.151-1.513-8.742,0.63-10.254,4.781c-1.511,4.151,0.629,8.742,4.781,10.254l15.037,5.474
		c0.903,0.329,1.827,0.484,2.736,0.484c3.268,0,6.335-2.018,7.518-5.266C115.778,160.981,113.637,156.39,109.485,154.878z"/>
</g>
<g>
</g>
<g>
</g>
<g>
</g>
<g>
</g>
<g>
</g>
<g>
</g>
<g>
</g>
<g>
</g>
<g>
</g>
<g>
</g>
<g>
</g>
<g>
</g>
<g>
</g>
<g>
</g>
<g>
</g>
</svg>
