<?xml version="1.0" encoding="iso-8859-1"?>
<!-- Generator: Adobe Illustrator 19.0.0, SVG Export Plug-In . SVG Version: 6.00 Build 0)  -->
<svg version="1.1" id="Capa_1" xmlns="http://www.w3.org/2000/svg" xmlns:xlink="http://www.w3.org/1999/xlink" x="0px" y="0px"
	 viewBox="0 0 57 57" style="enable-background:new 0 0 57 57;" xml:space="preserve">
<path d="M55.263,16.429c-1.087-0.695-2.437-0.788-3.608-0.247L44,19.715v-0.131c0-1.823-1.483-3.307-3.307-3.307H36v-5
	c0-1.654-1.346-3-3-3H1c-0.552,0-1,0.447-1,1s0.448,1,1,1h32c0.551,0,1,0.448,1,1v5H3.307C1.483,16.278,0,17.761,0,19.584v25.387
	c0,1.823,1.483,3.307,3.307,3.307h37.386c1.824,0,3.307-1.483,3.307-3.307v-0.131l7.655,3.533c0.506,0.233,1.045,0.349,1.582,0.349
	c0.707,0,1.409-0.2,2.027-0.596C56.351,47.431,57,46.245,57,44.954V19.602C57,18.311,56.351,17.125,55.263,16.429z M42,44.971
	c0,0.721-0.586,1.307-1.307,1.307H3.307C2.586,46.278,2,45.692,2,44.971V19.584c0-0.721,0.586-1.307,1.307-1.307h37.386
	c0.721,0,1.307,0.586,1.307,1.307v1.054v23.279V44.971z M55,44.954c0,0.614-0.297,1.157-0.814,1.488
	c-0.517,0.331-1.133,0.376-1.692,0.115L44,42.638V21.917l8.493-3.919c0.558-0.26,1.175-0.216,1.692,0.115S55,18.988,55,19.602
	V44.954z"/>
<g>
</g>
<g>
</g>
<g>
</g>
<g>
</g>
<g>
</g>
<g>
</g>
<g>
</g>
<g>
</g>
<g>
</g>
<g>
</g>
<g>
</g>
<g>
</g>
<g>
</g>
<g>
</g>
<g>
</g>
</svg>
